<?xml version="1.0" encoding="UTF-8" standalone="no"?>
<svg
   xmlns:dc="http://purl.org/dc/elements/1.1/"
   xmlns:cc="http://creativecommons.org/ns#"
   xmlns:rdf="http://www.w3.org/1999/02/22-rdf-syntax-ns#"
   xmlns:svg="http://www.w3.org/2000/svg"
   xmlns="http://www.w3.org/2000/svg"
   viewBox="0 0 1600 1600"
   height="1600"
   width="1600"
   xml:space="preserve"
   id="svg2"
   version="1.1"><metadata
     id="metadata8"><rdf:RDF><cc:Work
         rdf:about=""><dc:format>image/svg+xml</dc:format><dc:type
           rdf:resource="http://purl.org/dc/dcmitype/StillImage" /></cc:Work></rdf:RDF></metadata><defs
     id="defs6" /><g
     transform="matrix(1.3333333,0,0,-1.3333333,0,1600)"
     id="g10"><g
       transform="scale(0.1)"
       id="g12"><path
         id="path14"
         style="fill:none;fill-opacity:1;fill-rule:nonzero;stroke:none"
         d="M 12000,0 H 0 V 12000 H 12000 V 0" /><path
         id="path16"
         style="fill:none;fill-opacity:1;fill-rule:nonzero;stroke:none"
         d="M 9675,1875 H 2325 c -99.41,0 -180,80.6 -180,180 v 1410 c 0,99.41 80.59,180 180,180 h 7350 c 99.41,0 180,-80.59 180,-180 V 2055 c 0,-99.4 -80.59,-180 -180,-180" /><path
         id="path18"
         style="fill:none;stroke:#f9f6c9;stroke-width:60;stroke-linecap:butt;stroke-linejoin:miter;stroke-miterlimit:10;stroke-dasharray:none;stroke-opacity:1"
         d="M 9675,1875 H 2325 c -99.41,0 -180,80.6 -180,180 v 1410 c 0,99.41 80.59,180 180,180 h 7350 c 99.41,0 180,-80.59 180,-180 V 2055 c 0,-99.4 -80.59,-180 -180,-180 z" /><path
         id="path20"
         style="fill:none;fill-opacity:1;fill-rule:nonzero;stroke:none"
         d="m 7155,1875 h -150 v 960 h 150 v -960" /><path
         id="path22"
         style="fill:none;stroke:#f9f6c9;stroke-width:60;stroke-linecap:butt;stroke-linejoin:miter;stroke-miterlimit:10;stroke-dasharray:none;stroke-opacity:1"
         d="m 7155,1875 h -150 v 960 h 150 z" /><path
         id="path24"
         style="fill:none;fill-opacity:1;fill-rule:nonzero;stroke:none"
         d="m 6855,1875 h -150 v 960 h 150 v -960" /><path
         id="path26"
         style="fill:none;stroke:#f9f6c9;stroke-width:60;stroke-linecap:butt;stroke-linejoin:miter;stroke-miterlimit:10;stroke-dasharray:none;stroke-opacity:1"
         d="m 6855,1875 h -150 v 960 h 150 z" /><path
         id="path28"
         style="fill:none;fill-opacity:1;fill-rule:nonzero;stroke:none"
         d="m 7455,1875 h -150 v 960 h 150 v -960" /><path
         id="path30"
         style="fill:none;stroke:#f9f6c9;stroke-width:60;stroke-linecap:butt;stroke-linejoin:miter;stroke-miterlimit:10;stroke-dasharray:none;stroke-opacity:1"
         d="m 7455,1875 h -150 v 960 h 150 z" /><path
         id="path32"
         style="fill:none;fill-opacity:1;fill-rule:nonzero;stroke:none"
         d="m 7755,1875 h -150 v 960 h 150 v -960" /><path
         id="path34"
         style="fill:none;stroke:#f9f6c9;stroke-width:60;stroke-linecap:butt;stroke-linejoin:miter;stroke-miterlimit:10;stroke-dasharray:none;stroke-opacity:1"
         d="m 7755,1875 h -150 v 960 h 150 z" /><path
         id="path36"
         style="fill:none;fill-opacity:1;fill-rule:nonzero;stroke:none"
         d="m 8055,1875 h -150 v 960 h 150 v -960" /><path
         id="path38"
         style="fill:none;stroke:#f9f6c9;stroke-width:60;stroke-linecap:butt;stroke-linejoin:miter;stroke-miterlimit:10;stroke-dasharray:none;stroke-opacity:1"
         d="m 8055,1875 h -150 v 960 h 150 z" /><path
         id="path40"
         style="fill:none;fill-opacity:1;fill-rule:nonzero;stroke:none"
         d="m 8355,1875 h -150 v 960 h 150 v -960" /><path
         id="path42"
         style="fill:none;stroke:#f9f6c9;stroke-width:60;stroke-linecap:butt;stroke-linejoin:miter;stroke-miterlimit:10;stroke-dasharray:none;stroke-opacity:1"
         d="m 8355,1875 h -150 v 960 h 150 z" /><path
         id="path44"
         style="fill:none;fill-opacity:1;fill-rule:nonzero;stroke:none"
         d="m 8655,1875 h -150 v 960 h 150 v -960" /><path
         id="path46"
         style="fill:none;stroke:#f9f6c9;stroke-width:60;stroke-linecap:butt;stroke-linejoin:miter;stroke-miterlimit:10;stroke-dasharray:none;stroke-opacity:1"
         d="m 8655,1875 h -150 v 960 h 150 z" /><path
         id="path48"
         style="fill:none;fill-opacity:1;fill-rule:nonzero;stroke:none"
         d="m 8955,1875 h -150 v 960 h 150 v -960" /><path
         id="path50"
         style="fill:none;stroke:#f9f6c9;stroke-width:60;stroke-linecap:butt;stroke-linejoin:miter;stroke-miterlimit:10;stroke-dasharray:none;stroke-opacity:1"
         d="m 8955,1875 h -150 v 960 h 150 z" /><path
         id="path52"
         style="fill:none;fill-opacity:1;fill-rule:nonzero;stroke:none"
         d="m 9255,1875 h -150 v 960 h 150 v -960" /><path
         id="path54"
         style="fill:none;stroke:#f9f6c9;stroke-width:60;stroke-linecap:butt;stroke-linejoin:miter;stroke-miterlimit:10;stroke-dasharray:none;stroke-opacity:1"
         d="m 9255,1875 h -150 v 960 h 150 z" /><path
         id="path56"
         style="fill:none;fill-opacity:1;fill-rule:nonzero;stroke:none"
         d="m 9555,1875 h -150 v 960 h 150 v -960" /><path
         id="path58"
         style="fill:none;stroke:#f9f6c9;stroke-width:60;stroke-linecap:butt;stroke-linejoin:miter;stroke-miterlimit:10;stroke-dasharray:none;stroke-opacity:1"
         d="m 9555,1875 h -150 v 960 h 150 z" /><path
         id="path60"
         style="fill:none;fill-opacity:1;fill-rule:nonzero;stroke:none"
         d="m 9555,3105 h -840 v 240 h 840 v -240" /><path
         id="path62"
         style="fill:none;stroke:#f9f6c9;stroke-width:60;stroke-linecap:butt;stroke-linejoin:miter;stroke-miterlimit:10;stroke-dasharray:none;stroke-opacity:1"
         d="m 9555,3105 h -840 v 240 h 840 z" /><path
         id="path64"
         style="fill:none;fill-opacity:1;fill-rule:nonzero;stroke:none"
         d="M 5145,2295 H 2445 V 3345 H 5145 V 2295" /><path
         id="path66"
         style="fill:none;stroke:#f9f6c9;stroke-width:60;stroke-linecap:butt;stroke-linejoin:miter;stroke-miterlimit:10;stroke-dasharray:none;stroke-opacity:1"
         d="M 5145,2295 H 2445 v 1050 h 2700 z" /><path
         id="path68"
         style="fill:none;fill-opacity:1;fill-rule:nonzero;stroke:none"
         d="m 5025,3082.74 h -810 v 90 h -840 v -90 h -810 v -180 h 810 v -90 h 840 v 90 h 810 v 180" /><path
         id="path70"
         style="fill:none;stroke:#f9f6c9;stroke-width:60;stroke-linecap:butt;stroke-linejoin:miter;stroke-miterlimit:10;stroke-dasharray:none;stroke-opacity:1"
         d="m 5025,3082.74 h -810 v 90 h -840 v -90 h -810 v -180 h 810 v -90 h 840 v 90 h 810 z" /><path
         id="path72"
         style="fill:none;fill-opacity:1;fill-rule:nonzero;stroke:none"
         d="m 4665,2589 h 360 v -144 h -360 v 144" /><path
         id="path74"
         style="fill:none;stroke:#f9f6c9;stroke-width:60;stroke-linecap:butt;stroke-linejoin:miter;stroke-miterlimit:10;stroke-dasharray:none;stroke-opacity:1"
         d="m 4665,2589 h 360 v -144 h -360 z" /><path
         id="path76"
         style="fill:none;fill-opacity:1;fill-rule:nonzero;stroke:none"
         d="m 4350,4710 c 1048.06,-501.25 2261.34,-496.79 3300,0 H 4350" /><path
         id="path78"
         style="fill:none;stroke:#f9f6c9;stroke-width:60;stroke-linecap:butt;stroke-linejoin:miter;stroke-miterlimit:10;stroke-dasharray:none;stroke-opacity:1"
         d="m 4350,4710 c 1048.06,-501.25 2261.34,-496.79 3300,0 z" /><path
         id="path80"
         style="fill:none;fill-opacity:1;fill-rule:nonzero;stroke:none"
         d="M 7650,3795 V 3645 H 4350 v 150 c 286.35,136.95 588.75,237.75 900,300 811.35,162.3 1653.6,57 2400,-300" /><path
         id="path82"
         style="fill:none;stroke:#f9f6c9;stroke-width:60;stroke-linecap:butt;stroke-linejoin:round;stroke-miterlimit:10;stroke-dasharray:none;stroke-opacity:1"
         d="M 7650,3795 V 3645 H 4350 v 150 c 286.35,136.95 588.75,237.75 900,300 811.35,162.3 1653.6,57 2400,-300 z" /><path
         id="path84"
         style="fill:none;fill-opacity:1;fill-rule:nonzero;stroke:none"
         d="M 7650,3795 V 3645 H 4350 v 150 h 3300" /><path
         id="path86"
         style="fill:none;stroke:#f9f6c9;stroke-width:60;stroke-linecap:butt;stroke-linejoin:round;stroke-miterlimit:10;stroke-dasharray:none;stroke-opacity:1"
         d="M 7650,3795 V 3645 H 4350 v 150 z" /><path
         id="path88"
         style="fill:none;fill-opacity:1;fill-rule:nonzero;stroke:none"
         d="M 6750,4095.03 H 5250 v 315 h 1500 v -315" /><path
         id="path90"
         style="fill:none;stroke:#f9f6c9;stroke-width:60;stroke-linecap:butt;stroke-linejoin:miter;stroke-miterlimit:10;stroke-dasharray:none;stroke-opacity:1"
         d="M 6750,4095.03 H 5250 v 315 h 1500 z" /><path
         id="path92"
         style="fill:none;fill-opacity:1;fill-rule:nonzero;stroke:none"
         d="M 8805,4710 H 3195 c -248.53,0 -450,201.47 -450,450 v 4515 c 0,248.53 201.47,450 450,450 h 5610 c 248.53,0 450,-201.47 450,-450 V 5160 c 0,-248.53 -201.47,-450 -450,-450" /><path
         id="path94"
         style="fill:none;stroke:#f9f6c9;stroke-width:60;stroke-linecap:butt;stroke-linejoin:miter;stroke-miterlimit:10;stroke-dasharray:none;stroke-opacity:1"
         d="M 8805,4710 H 3195 c -248.53,0 -450,201.47 -450,450 v 4515 c 0,248.53 201.47,450 450,450 h 5610 c 248.53,0 450,-201.47 450,-450 V 5160 c 0,-248.53 -201.47,-450 -450,-450 z" /><path
         id="path96"
         style="fill:none;fill-opacity:1;fill-rule:nonzero;stroke:none"
         d="m 3769.01,5040 c 0,-86.98 -70.52,-157.5 -157.5,-157.5 -86.99,0 -157.5,70.52 -157.5,157.5 0,86.98 70.51,157.5 157.5,157.5 86.98,0 157.5,-70.52 157.5,-157.5" /><path
         id="path98"
         style="fill:none;stroke:#f9f6c9;stroke-width:60;stroke-linecap:butt;stroke-linejoin:miter;stroke-miterlimit:10;stroke-dasharray:none;stroke-opacity:1"
         d="m 3769.01,5040 c 0,-86.98 -70.52,-157.5 -157.5,-157.5 -86.99,0 -157.5,70.52 -157.5,157.5 0,86.98 70.51,157.5 157.5,157.5 86.98,0 157.5,-70.52 157.5,-157.5 z" /><path
         id="path100"
         style="fill:none;fill-opacity:1;fill-rule:nonzero;stroke:none"
         d="m 6075,5040 c 0,-41.42 -33.58,-75 -75,-75 -41.42,0 -75,33.58 -75,75 0,41.42 33.58,75 75,75 41.42,0 75,-33.58 75,-75" /><path
         id="path102"
         style="fill:none;stroke:#f9f6c9;stroke-width:60;stroke-linecap:butt;stroke-linejoin:miter;stroke-miterlimit:10;stroke-dasharray:none;stroke-opacity:1"
         d="m 6075,5040 c 0,-41.42 -33.58,-75 -75,-75 -41.42,0 -75,33.58 -75,75 0,41.42 33.58,75 75,75 41.42,0 75,-33.58 75,-75 z" /><path
         id="path104"
         style="fill:none;fill-opacity:1;fill-rule:nonzero;stroke:none"
         d="m 5775,5040 c 0,-41.42 -33.58,-75 -75,-75 -41.42,0 -75,33.58 -75,75 0,41.42 33.58,75 75,75 41.42,0 75,-33.58 75,-75" /><path
         id="path106"
         style="fill:none;stroke:#f9f6c9;stroke-width:60;stroke-linecap:butt;stroke-linejoin:miter;stroke-miterlimit:10;stroke-dasharray:none;stroke-opacity:1"
         d="m 5775,5040 c 0,-41.42 -33.58,-75 -75,-75 -41.42,0 -75,33.58 -75,75 0,41.42 33.58,75 75,75 41.42,0 75,-33.58 75,-75 z" /><path
         id="path108"
         style="fill:none;fill-opacity:1;fill-rule:nonzero;stroke:none"
         d="m 5475,5040 c 0,-41.42 -33.58,-75 -75,-75 -41.42,0 -75,33.58 -75,75 0,41.42 33.58,75 75,75 41.42,0 75,-33.58 75,-75" /><path
         id="path110"
         style="fill:none;stroke:#f9f6c9;stroke-width:60;stroke-linecap:butt;stroke-linejoin:miter;stroke-miterlimit:10;stroke-dasharray:none;stroke-opacity:1"
         d="m 5475,5040 c 0,-41.42 -33.58,-75 -75,-75 -41.42,0 -75,33.58 -75,75 0,41.42 33.58,75 75,75 41.42,0 75,-33.58 75,-75 z" /><path
         id="path112"
         style="fill:none;fill-opacity:1;fill-rule:nonzero;stroke:none"
         d="m 6375,5040 c 0,-41.42 -33.58,-75 -75,-75 -41.42,0 -75,33.58 -75,75 0,41.42 33.58,75 75,75 41.42,0 75,-33.58 75,-75" /><path
         id="path114"
         style="fill:none;stroke:#f9f6c9;stroke-width:60;stroke-linecap:butt;stroke-linejoin:miter;stroke-miterlimit:10;stroke-dasharray:none;stroke-opacity:1"
         d="m 6375,5040 c 0,-41.42 -33.58,-75 -75,-75 -41.42,0 -75,33.58 -75,75 0,41.42 33.58,75 75,75 41.42,0 75,-33.58 75,-75 z" /><path
         id="path116"
         style="fill:none;fill-opacity:1;fill-rule:nonzero;stroke:none"
         d="m 6675,5040 c 0,-41.42 -33.58,-75 -75,-75 -41.42,0 -75,33.58 -75,75 0,41.42 33.58,75 75,75 41.42,0 75,-33.58 75,-75" /><path
         id="path118"
         style="fill:none;stroke:#f9f6c9;stroke-width:60;stroke-linecap:butt;stroke-linejoin:miter;stroke-miterlimit:10;stroke-dasharray:none;stroke-opacity:1"
         d="m 6675,5040 c 0,-41.42 -33.58,-75 -75,-75 -41.42,0 -75,33.58 -75,75 0,41.42 33.58,75 75,75 41.42,0 75,-33.58 75,-75 z" /><path
         id="path120"
         style="fill:none;fill-opacity:1;fill-rule:nonzero;stroke:none"
         d="M 8605.99,5370 H 3394.01 c -132.55,0 -240,107.45 -240,240 v 3915 c 0,132.55 107.45,240 240,240 h 5211.98 c 132.55,0 240,-107.45 240,-240 V 5610 c 0,-132.55 -107.45,-240 -240,-240" /><path
         id="path122"
         style="fill:none;stroke:#f9f6c9;stroke-width:60;stroke-linecap:butt;stroke-linejoin:miter;stroke-miterlimit:10;stroke-dasharray:none;stroke-opacity:1"
         d="M 8605.99,5370 H 3394.01 c -132.55,0 -240,107.45 -240,240 v 3915 c 0,132.55 107.45,240 240,240 h 5211.98 c 132.55,0 240,-107.45 240,-240 V 5610 c 0,-132.55 -107.45,-240 -240,-240 z" /><path
         id="path124"
         style="fill:none;fill-opacity:1;fill-rule:nonzero;stroke:none"
         d="m 3304.01,5760 v 3615 c 0,132.55 107.45,240 240,240 H 8456 c 132.55,0 240,-107.45 240,-240 V 5760 c 0,-132.55 -107.45,-240 -240,-240 H 3544.01 c -132.55,0 -240,107.45 -240,240" /><path
         id="path126"
         style="fill:none;stroke:#f9f6c9;stroke-width:60;stroke-linecap:butt;stroke-linejoin:miter;stroke-miterlimit:10;stroke-dasharray:none;stroke-opacity:1"
         d="m 3304.01,5760 v 3615 c 0,132.55 107.45,240 240,240 H 8456 c 132.55,0 240,-107.45 240,-240 V 5760 c 0,-132.55 -107.45,-240 -240,-240 H 3544.01 c -132.55,0 -240,107.45 -240,240 z" /><path
         id="path128"
         style="fill:none;fill-opacity:1;fill-rule:nonzero;stroke:none"
         d="m 3544.01,5610 c -82.72,0 -150,67.29 -150,150 v 3615 c 0,82.71 67.28,150 150,150 H 8456 c 82.71,0 150,-67.29 150,-150 V 5760 c 0,-82.71 -67.29,-150 -150,-150 H 3544.01" /><path
         id="path130"
         style="fill:none;stroke:#f9f6c9;stroke-width:60;stroke-linecap:butt;stroke-linejoin:miter;stroke-miterlimit:10;stroke-dasharray:none;stroke-opacity:1"
         d="m 3544.01,5610 c -82.72,0 -150,67.29 -150,150 v 3615 c 0,82.71 67.28,150 150,150 H 8456 c 82.71,0 150,-67.29 150,-150 V 5760 c 0,-82.71 -67.29,-150 -150,-150 z" /></g></g></svg>